<svg xmlns="http://www.w3.org/2000/svg" width="8.066" height="8.066" viewBox="0 0 8.066 8.066">
  <path id="Path_3" data-name="Path 3" d="M4.033.717A12.366,12.366,0,0,1,5.646.762,2.078,2.078,0,0,1,6.408.9a1.574,1.574,0,0,1,.762.762A2.078,2.078,0,0,1,7.3,2.42c0,.4.045.538.045,1.613A12.366,12.366,0,0,1,7.3,5.646a2.078,2.078,0,0,1-.134.762,1.574,1.574,0,0,1-.762.762,2.078,2.078,0,0,1-.762.134c-.4,0-.538.045-1.613.045A12.366,12.366,0,0,1,2.42,7.3a2.078,2.078,0,0,1-.762-.134A1.574,1.574,0,0,1,.9,6.408a2.078,2.078,0,0,1-.134-.762c0-.4-.045-.538-.045-1.613A12.366,12.366,0,0,1,.762,2.42,2.078,2.078,0,0,1,.9,1.658,1.609,1.609,0,0,1,1.21,1.21.758.758,0,0,1,1.658.9,2.078,2.078,0,0,1,2.42.762,12.366,12.366,0,0,1,4.033.717m0-.717A13.241,13.241,0,0,0,2.375.045a2.767,2.767,0,0,0-.986.179A1.754,1.754,0,0,0,.672.672a1.754,1.754,0,0,0-.448.717,2.042,2.042,0,0,0-.179.986A13.241,13.241,0,0,0,0,4.033,13.241,13.241,0,0,0,.045,5.691a2.767,2.767,0,0,0,.179.986,1.754,1.754,0,0,0,.448.717,1.754,1.754,0,0,0,.717.448,2.767,2.767,0,0,0,.986.179,13.241,13.241,0,0,0,1.658.045,13.241,13.241,0,0,0,1.658-.045,2.767,2.767,0,0,0,.986-.179A1.88,1.88,0,0,0,7.842,6.677a2.767,2.767,0,0,0,.179-.986c0-.448.045-.583.045-1.658a13.241,13.241,0,0,0-.045-1.658,2.767,2.767,0,0,0-.179-.986A1.754,1.754,0,0,0,7.394.672,1.754,1.754,0,0,0,6.677.224,2.767,2.767,0,0,0,5.691.045,13.241,13.241,0,0,0,4.033,0m0,1.972A2.028,2.028,0,0,0,1.972,4.033,2.061,2.061,0,1,0,4.033,1.972m0,3.406A1.32,1.32,0,0,1,2.689,4.033,1.32,1.32,0,0,1,4.033,2.689,1.32,1.32,0,0,1,5.378,4.033,1.32,1.32,0,0,1,4.033,5.378M6.184,1.389a.493.493,0,1,0,.493.493.5.5,0,0,0-.493-.493" fill="#fff" fill-rule="evenodd"/>
</svg>
