<svg xmlns="http://www.w3.org/2000/svg" width="8.066" height="6.543" viewBox="0 0 8.066 6.543">
  <path id="Path_2" data-name="Path 2" d="M40.554,8.543A4.663,4.663,0,0,0,45.26,3.837V3.613a3.643,3.643,0,0,0,.807-.851,3.72,3.72,0,0,1-.941.269,1.743,1.743,0,0,0,.717-.9,4.11,4.11,0,0,1-1.031.4A1.6,1.6,0,0,0,43.6,2a1.684,1.684,0,0,0-1.658,1.658.874.874,0,0,0,.045.359,4.633,4.633,0,0,1-3.406-1.748,1.716,1.716,0,0,0-.224.851,1.78,1.78,0,0,0,.717,1.389,1.511,1.511,0,0,1-.762-.224h0A1.638,1.638,0,0,0,39.658,5.9a1.382,1.382,0,0,1-.448.045A.763.763,0,0,1,38.9,5.9a1.7,1.7,0,0,0,1.568,1.165,3.383,3.383,0,0,1-2.061.717,1.241,1.241,0,0,1-.4-.045,4.23,4.23,0,0,0,2.554.807" transform="translate(-38 -2)" fill="#fff" fill-rule="evenodd"/>
</svg>
